<svg id="Шар_1" data-name="Шар 1" xmlns="http://www.w3.org/2000/svg" viewBox="0 0 1491.76 634.58"><defs><style>.cls-1{fill:none;stroke:#b9b9b9;}</style></defs><path class="cls-1" d="M-125.89,112.28c-9.67,9.37-5.44,19.37-6.53,30.84-13.11,4.53-10.09,13,4,11.1,12.74,2.73-4.73,14.65-.47,21.14-10.65,13.47,22.81,13,26,29.45C-99,209-93.1,202.41-89,205.86c29.21,29-7.72,3,14.38,29.68C-79,246.91-69.79,265.75-83,271.4c-6.17,10.5,18.19,12.68,18.91,23.6,1.56,7.42,14.3.6,12.74,8.53-8.57,10.8-27.76-1.28-34.52,5.28-.36,13.53-20.58,5.29-16-4.11-1.13-6.51-15.59-20.51-19.19-16.83-14.6,63-28-39.4-44,8.77-11.88-38.65-17.08,27.51-25.47,1.28,6.86-53.56-14.82-6-40.31-12.15-7.91,1.25,2.26,11.47,1.52,16.24.83,21.06.15,26.52,14.84,40.65-9.45,18.32-25.46,16-14.94,40-68.4,20.47,3.49,31.05-68.6,60.4-13.33,8.37,5.23,24-3.85,35.52-12.07-2.69,4.43,19.52-16.71,7.71-80-4,43.92,114.38,55.44,51.17,19.37-.89,15.68,17.15,32.89-9.23,30.1-13.09,67.21-24.51,95.22,3.63-6.37,51.43,28.78,13.1,14.24-17-72-39.41,212.19-104.51,68.1-191.59-6.47-19.41,24.76-26,22.8-4.1,6.43,17.07,4.84-20.56,10.87-1.4C-22.24,330-15.17,330.2-7.3,334.6c-3.22,24.31,8,14.26,8.77,31.78-12.9,37.35,18-21.6,29.55-28.39,36-32.75,17.37-77.06,68.94-79.44,4.57-34.07-36.34-64.23-22.57-91.48,3.49,44.89,22.1,31.72,28.28,70-16.89,32.44,39.86,35.28,42.32,5.17-15.37-21.21,6.92,2.33,17.09-24.63,13.52-5.64-16.63,27.18-12.44,34.53-12.64,19.42,16.07,2.79,23.21,2.72,24.94,13,43.36,3.73,30.59-24.54C198.5,214.61,228.82,211.17,222,196c-19,2.16.3-15.89-10.69-15.34-17.69-.84,2.41-14.63-9.73-31.36,4.3-6,5.39,5.22,10.43,6.21,6,7.13-6.51,12.73-2.63,19.46,4.38,2.52,12.89-2.28,13.67,6.31-9.29,9.29,7.95,7.18,6,17.17-6.21,24.06-24.57,41.35,7,60.46,19.64,9.47-2.91,24.28,28.47,5.69,9.28-6.3,19.22,12.85,7.62,18.49,8,22.42,10.51,2.15,23.75,5,6.19,30.24-156-29.65-140.72-11,51.27,44.63-.07-12.62,53.1,20.33,40.19-4.53,26.8,35.6-5,24.45-15.27,1.48-14,15,1.15,14.9,11.1-10.19,8.18-9.52,21.2,1.23,19,1.36,10.87,10.53,26,14.1,33.45-6-.9,10.4,13.93,16.38,12.57,1.83,25.66,4.51,36,12.54,12.48,11,5.3-11.51,21.29-8.06,10.89,3.23,18.18-5.38,29.53-3,7.88-4.11,20.55,8.3,25.93-2.2-.59-17.42,25.46,10.37,25.15-13.23,5.92-14.12,4.15-3.77,4.73,3.16.82,2.45-6.11,12.13-.52,9.46,6.35-7,9.95,5.26,15.86,5.43,8.12-3.06,12.46,8.42,13.67,14.59,2.84,2.47,4.28-2,7-2,12.88,8.94.72-7,12.53-6.48,2.15-3.67-1.79-7.13-3.77-9.73,18.16-24.62,17.35,24,16.64,35.75,8.81-1.39,34.15,0,11.66,9.2-3.34,3.07-.93,13.61-7.62,10.17-7.47-5.71-12.53,2.95-17.79,6.57-4.63,1-8.82-6.9-12.7.7-50.27,43.56-31.69-7.82-45.05,11.82-1.78,27.3-48.74,21.61-48.88,53.29-2.12,4.86-10.34,2.92-5.26-2-4.29-9.32-14.06,10.07-20.94,10.52-34.46,10.56-24.77,53.41,8.67,38.47,41.28-37.93,91,75.74,107.87,18.14,4.07,3,38.49-3.16,23.48,6.22-14.38,26.51,26.66,50.16,8.06,75.09-18.48,10-3.62,30.84-11.22,45.56-59.6,24.76,74.06,120,151.59-21.63,62.14-42.57,78.23,10.47,115.65-52.5,5.67-4,13.43,11.06,14.21-.08-3.45-4.69-.91-7.53,3-10.26,1.56-8.31-1.77-14.52,8.77-19.1,57.51-25.08,44.51,24.91,74.74,14.2,36.52-17.29,24.88.16,47.4-6.39,9-10.09,33-.29,32-19.29-13.26-8.18-.86-35.56-10.95-27.25-2.52-8.63,13-9.35,10.86-23.39,4.55-6.24,10.49,4.54,16.39.79,10.88-7.76,12.92-52-6.13-40.22-6.25-2.09-12.81-9.49-19.19-3.77-49.35-33.17-53.51,90.69-88.68,21C729.1,653.69,643.18,303.49,631.75,382.67c7.21,1.11,3.17-3.26,3.86-7.44,5-1.83.58,5.74,4.47,6,8.56.58,3.92,13.89,8.85,18.66,10.58,6.77.09,17.43,1,27.34,1.26,11.74,6.89-6.64,12-1.31,7.51,56.1,157,152.4,33.65,107-6.28-7.59-8.89-29.07-11-3.14-4.15,4.85-8.93-1.56-9.28-6-1.25-15.33,19.33-11.57,19.1-25.23-1.38-13.49-13-26.33-22.52-35.32-5.16-4.47-18.56,1.79-18.75-6.48,6.18-21.4-18.29,5.26-13.67-13.49,6.6-25.3-14.56-3.21-14.63-12.09-.1-6.65,6.62-10.25,12.26-11.31,10.74-25.49-41.36,36.71-35.83,13.67,9-9.31,37.47-39.08,9.72-38.47-.18,6,6.4,20.46-5,19.28-14.64,11.79-3.31-13.55-11-14.89-6.29,3.61,1.33,15.55-6,18.92-10.78-7.74-2.19-9,.7-17.52-.45-3.27-7.17-6.09-3.94-9.2-24.49-.25-9.14-9.17-19.81-7.54.69,3.62-1.45,8-5.69,8.06-7.23-3.24,1.89-15.11-10.52-10.42,26.12,32.71-16.29,24.52-4.64,15.51,5.72,4,7.19-4.05,4.38-8.07-34.62-44.39-16.21,12-43.57-15.53-11.67-1.06,8.21-15.45-5.26-16.71-5,.12-1.72,5-3.51,7.71-7.38,4.62-18.16-4.83-16.47-13-4.47-2.2-15.28-14.69-3.15-9.58,6.5,6.81,7.18,3.19,11.68-2.8,9.63-1.35,13.18,8.45,25.47,5.48,12.56-1.71,9.93,26.37,19.85,16,13.08,5.84,16,4.45,10.05-10.17,3.63-5.07,7.42,12.43,8.77,2.22-26.59-47.64,21-8.17,15.65,15.19,15-1.83,1.72-14.52,6.07-20.56,10.08-.71,15.22,16.06,25.71,13,15.33-31,19.12,14.45,3.62,6.08-2,4.16-5.12-.65-7.83,1.75-6,4.05.7,7.66-.35,11.57-23.15,18.69,38.78,26.1,21.35-24.4,27.82-14.91,15.24,17.27,43-19.27,12.47,3.2,29.33-4.79,31.2-18.49-1.19-6.94-6.29,9.19-4.12-13.84,6.61-18.22,1.38,13.8,11,7.18,14.94-11.36-3.06-16.53.35-25.14,6.73-6.36,6.34,7.9,12.44,7.09,11.59.62-2.18,13,2.72,18.23,35.23,11.82-52.64,56-36.45,60.19C712.91,363,718.93,320,737.6,294.8c-21.26,18.14-18.65-29.22-21.9-44,2.79-23.39,9.89,10.64,11.82,15.77-1.06,6.47,2,19.48,10.35,18.93,1.27-2.12,4.07-7.75,6.57-3.68-7.66,28.93,47.76-39,58.26-38.91,18.18,2.29,44.1-17.13,55.12,3.07,12.85-13.33,1.63,16.59-7.36,19.63-19.06,5.3-12,17.78,2.28,5.16,16.7-74.49,114.61-76.47,77.73-31.88,24-2.39.41-45,45.83-53.36,54.51-44.22,18.48,38.32,67.28-48.29,16.23-7.59,31.12,8.54,46.88-6.4,14.26-3.3,20.3,6.72,34.08-5.08,9.53,1.47-.9,14.39,7.89,9.9,6.48-1.35,3.12-8.92,7.71-12.18,6.57-2.2,5.85-8.87,3.8-14.6" transform="translate(345.88 -108.72)"/></svg>