<svg id="Шар_1" data-name="Шар 1" xmlns="http://www.w3.org/2000/svg" viewBox="0 0 158.92 158.24"><defs><style>.cls-1{fill:#1d1d1b;}</style></defs><path class="cls-1" d="M1021.08,591.21l-2.09,2.25a6.17,6.17,0,0,1-2.5,1.82,2.2,2.2,0,0,1-2.22-.64,2.32,2.32,0,0,1-.79-1.45,2.46,2.46,0,0,1,.44-1.66l-.06,0a4.33,4.33,0,0,1-1.13.62,2.07,2.07,0,0,1-1.18.08,2.62,2.62,0,0,1-1.21-.68,2.76,2.76,0,0,1-1-2.27,4.35,4.35,0,0,1,1.27-2.55l2.57-2.77Zm-5.11-2.88-2.85-2.65-1.47,1.59a2.77,2.77,0,0,0-.94,1.84,2,2,0,0,0,.69,1.4,1.76,1.76,0,0,0,1.39.5,3.16,3.16,0,0,0,1.79-1.17Zm.83.76-1.35,1.46a3,3,0,0,0-1,1.69,1.61,1.61,0,0,0,.61,1.27,1.4,1.4,0,0,0,1.36.41,4,4,0,0,0,1.63-1.2l1.21-1.31Z" transform="translate(-881 -461.04)"/><path class="cls-1" d="M1012,600.39l-1,.77-3.57-4.69c-.21-.27-.43-.57-.67-.9s-.46-.64-.65-.93l-.41-.61,0,0,.68,10.65-1.19.91-6.51-8.54,1-.76,3.54,4.64c.22.29.45.6.7.95s.47.67.66,1,.34.5.42.63l.05,0-.7-10.7,1.2-.91Z" transform="translate(-881 -461.04)"/><path class="cls-1" d="M988.13,602.79l1.21-.62,4.33,8.51,3-1.54c-.25-.7-.52-1.44-.79-2.22s-.53-1.52-.77-2.24-.42-1.32-.56-1.83a9.49,9.49,0,0,1-.36-1.76,2.51,2.51,0,0,1,.2-1.29,2,2,0,0,1,.94-.88,2.62,2.62,0,0,1,.49-.19,2.31,2.31,0,0,1,.46-.09l.52,1-.4.06a1.45,1.45,0,0,0-.42.16.8.8,0,0,0-.47.65,2.66,2.66,0,0,0,.05,1c.08.37.17.73.26,1.09s.27.92.5,1.63.51,1.53.84,2.47.68,1.93,1.06,3L993,612.35Z" transform="translate(-881 -461.04)"/><path class="cls-1" d="M976.72,606.7l1.55-.49,6.27,3.73-1.64-5.19,1.29-.41,3.23,10.24-1.29.41-1.56-5-3,6.39-1.47.46,2.88-6.38Z" transform="translate(-881 -461.04)"/><path class="cls-1" d="M965.72,613.84a7,7,0,0,1,.16-3,4.35,4.35,0,0,1,1.39-2.14,5.77,5.77,0,0,1,5.44-.75,4.16,4.16,0,0,1,1.9,1.7,8.07,8.07,0,0,1,.79,5.74,4.23,4.23,0,0,1-1.37,2.14,5.23,5.23,0,0,1-2.67,1.06,4.94,4.94,0,0,1-2.78-.31,4.27,4.27,0,0,1-1.9-1.68A6.82,6.82,0,0,1,965.72,613.84Zm8.4-1.16a5.3,5.3,0,0,0-1.28-3,3.65,3.65,0,0,0-5.3.73,5.33,5.33,0,0,0-.4,3.28,5.27,5.27,0,0,0,1.26,3,3.69,3.69,0,0,0,5.31-.73A5.21,5.21,0,0,0,974.12,612.68Z" transform="translate(-881 -461.04)"/><path class="cls-1" d="M960.91,619.28l-3.06-.11a6.26,6.26,0,0,1-3-.71,2.22,2.22,0,0,1-1-2.1,2.37,2.37,0,0,1,.59-1.55,2.51,2.51,0,0,1,1.54-.75V614a4.17,4.17,0,0,1-1.21-.46,2.12,2.12,0,0,1-.84-.84,2.67,2.67,0,0,1-.26-1.36,2.7,2.7,0,0,1,1.08-2.22,4.24,4.24,0,0,1,2.76-.7l3.77.14Zm-1.14-5.74.14-3.9-2.16-.07a2.73,2.73,0,0,0-2,.48,1.94,1.94,0,0,0-.61,1.44,1.71,1.71,0,0,0,.52,1.38,3.18,3.18,0,0,0,2.05.59Zm0,1.12-2-.07a3,3,0,0,0-1.9.37,1.67,1.67,0,0,0-.56,1.3,1.36,1.36,0,0,0,.57,1.29,3.94,3.94,0,0,0,2,.46l1.77.07Z" transform="translate(-881 -461.04)"/><path class="cls-1" d="M944.34,606.65l5.89,1.12-2,10.55-5.9-1.12.23-1.17,4.56.87.63-3.29-4.3-.82.22-1.15,4.3.81.71-3.76-4.56-.87Z" transform="translate(-881 -461.04)"/><path class="cls-1" d="M932.81,610.36l-1.22-3.76.07-.18,3.49-1.85.66.87L932.89,607l1,3.18Z" transform="translate(-881 -461.04)"/><path class="cls-1" d="M914.37,598a7,7,0,0,1,2.12-2.07,4.28,4.28,0,0,1,2.47-.64,5.79,5.79,0,0,1,4.51,3.11,4.23,4.23,0,0,1,.26,2.54,7.38,7.38,0,0,1-1.21,2.7,7.3,7.3,0,0,1-2.08,2.07,4.26,4.26,0,0,1-2.46.65,5.29,5.29,0,0,1-2.69-1,5,5,0,0,1-1.83-2.1,4.27,4.27,0,0,1-.28-2.53A7,7,0,0,1,914.37,598Zm7,4.82a5.26,5.26,0,0,0,1.11-3.12,3.64,3.64,0,0,0-4.4-3,5.35,5.35,0,0,0-2.52,2.14,5.42,5.42,0,0,0-1.11,3.1,3.09,3.09,0,0,0,1.54,2.46,3.14,3.14,0,0,0,2.87.58A5.29,5.29,0,0,0,921.35,602.8Z" transform="translate(-881 -461.04)"/><path class="cls-1" d="M909.4,585.9l1,1-6.72,6.78,2.41,2.4c.59-.47,1.21-.95,1.86-1.45s1.28-1,1.88-1.43,1.13-.83,1.57-1.12a8.82,8.82,0,0,1,1.55-.88,2.48,2.48,0,0,1,1.29-.22,2,2,0,0,1,1.14.61,2.69,2.69,0,0,1,.33.41,1.9,1.9,0,0,1,.23.41l-.79.8a2,2,0,0,0-.18-.36,1.79,1.79,0,0,0-.28-.35.84.84,0,0,0-.77-.24,2.62,2.62,0,0,0-.93.37c-.33.19-.64.39-1,.59s-.78.54-1.38,1-1.3,1-2.08,1.57-1.63,1.25-2.51,1.94l-4.18-4.13Z" transform="translate(-881 -461.04)"/><path class="cls-1" d="M903.13,577.77l3.55,4.84L898,589l-3.55-4.83,1-.71,2.75,3.75,2.7-2-2.59-3.52.94-.7,2.59,3.53,3.09-2.27-2.75-3.75Z" transform="translate(-881 -461.04)"/><path class="cls-1" d="M895.61,563.34l5.4,11.45-9.71,4.58-.58-1.23,8.63-4.06-1.83-3.88-8.63,4.07-.57-1.23,8.62-4.06-1.83-3.89-8.63,4.06-.58-1.23Z" transform="translate(-881 -461.04)"/><path class="cls-1" d="M892.65,551.7l.39,1.58-4.13,6,5.28-1.3.33,1.31-10.43,2.56-.32-1.31,5.05-1.24L882.64,556l-.37-1.49,6.18,3.28Z" transform="translate(-881 -461.04)"/><path class="cls-1" d="M892,545.82l.44,3.86-.78.09-.43-1.23-8.53,1-.15,1.28-.78.09-.44-3.85.78-.09.44,1.22,8.53-1,.14-1.29Z" transform="translate(-881 -461.04)"/><path class="cls-1" d="M881,542.17l0-3.07a6.2,6.2,0,0,1,.65-3,2.17,2.17,0,0,1,2.07-1,2.34,2.34,0,0,1,1.57.55,2.5,2.5,0,0,1,.78,1.53h.07a4.13,4.13,0,0,1,.43-1.21,2.12,2.12,0,0,1,.82-.86,2.66,2.66,0,0,1,1.36-.29,2.72,2.72,0,0,1,2.24,1,4.25,4.25,0,0,1,.75,2.74l-.06,3.77Zm4.59-1.28,0-2a2.94,2.94,0,0,0-.41-1.89,1.65,1.65,0,0,0-1.31-.54,1.37,1.37,0,0,0-1.28.6,4,4,0,0,0-.41,2l0,1.77Zm1.13,0,3.89.06,0-2.16a2.79,2.79,0,0,0-.53-2,2,2,0,0,0-1.45-.58,1.75,1.75,0,0,0-1.37.56,3.18,3.18,0,0,0-.55,2.06Z" transform="translate(-881 -461.04)"/><path class="cls-1" d="M883.46,525a3.37,3.37,0,0,0,.68,2.88,4.66,4.66,0,0,0,3,1.52,4.91,4.91,0,0,0,3.28-.37,3.32,3.32,0,0,0,1.62-2.53,6.82,6.82,0,0,0,.11-1.33c0-.42,0-.85-.08-1.28l1.15.2a6.85,6.85,0,0,1,.12,1.28,10.5,10.5,0,0,1-.16,1.52,5.28,5.28,0,0,1-1.13,2.59,4.21,4.21,0,0,1-2.18,1.29,7.27,7.27,0,0,1-3,0,6.56,6.56,0,0,1-2.72-1.08,4.5,4.5,0,0,1-1.61-2,5.31,5.31,0,0,1-.21-2.89,6.55,6.55,0,0,1,1.13-2.81l1,.72a7,7,0,0,0-.59,1A4.58,4.58,0,0,0,883.46,525Z" transform="translate(-881 -461.04)"/><path class="cls-1" d="M894.41,520.61l-10.15-3.49.44-1.28,4.3,1.48.65-1.91a6,6,0,0,1,1.16-2.12,2.7,2.7,0,0,1,1.46-.86,3.11,3.11,0,0,1,1.59.14,2.91,2.91,0,0,1,1.85,1.65,4.3,4.3,0,0,1-.15,3Zm-.65-1.65.66-1.94c.58-1.66.24-2.7-1-3.13a1.52,1.52,0,0,0-1.61.21,4.24,4.24,0,0,0-1.08,1.85l-.61,1.75Z" transform="translate(-881 -461.04)"/><path class="cls-1" d="M902,503.45l-.77,1.43-7.08,1.73,4.8,2.56-.64,1.19-9.47-5.05.63-1.19,4.6,2.45-2.37-6.63.72-1.36,2.42,6.57Z" transform="translate(-881 -461.04)"/><path class="cls-1" d="M905.45,498.64l-2.24,3.17-.64-.45.5-1.2-7-5-1,.85-.64-.45,2.24-3.17.64.46-.49,1.2,7,5,1-.87Z" transform="translate(-881 -461.04)"/><path class="cls-1" d="M911.18,491.8,904,483.87l5.95-5.44,7.24,7.93-1,.91-6.44-7.06-4,3.62,6.43,7.05Z" transform="translate(-881 -461.04)"/><path class="cls-1" d="M919.16,473.17a3.38,3.38,0,0,0-1.66,2.45,4.67,4.67,0,0,0,.88,3.2,5,5,0,0,0,2.49,2.16,3.31,3.31,0,0,0,3-.52,6.69,6.69,0,0,0,1-.82,11.21,11.21,0,0,0,.89-.93l.63,1a6.42,6.42,0,0,1-.86.95,9.36,9.36,0,0,1-1.23.91,5,5,0,0,1-2.66.92,4.17,4.17,0,0,1-2.43-.73,7.16,7.16,0,0,1-2.05-2.17,6.44,6.44,0,0,1-1-2.73,4.38,4.38,0,0,1,.42-2.57,5.31,5.31,0,0,1,2-2.11,6.42,6.42,0,0,1,2.83-1.08l.16,1.26a8,8,0,0,0-1.15.25A4.73,4.73,0,0,0,919.16,473.17Z" transform="translate(-881 -461.04)"/><path class="cls-1" d="M937,475.08l-1.48.65-6.65-3,2.2,5-1.24.55-4.33-9.82,1.24-.55,2.1,4.76,2.23-6.67,1.4-.62L930.31,472Z" transform="translate(-881 -461.04)"/><path class="cls-1" d="M937,463.78l1.23-.3,1.42,5.72c.08.33.17.69.26,1.09s.16.76.22,1.1.11.59.14.74l.06,0L944,462.06l1.46-.36L948,472.12l-1.23.3-1.41-5.66c-.08-.35-.17-.73-.26-1.15s-.16-.8-.23-1.14-.11-.6-.14-.74h-.06l-3.59,10.1-1.46.36Z" transform="translate(-881 -461.04)"/><path class="cls-1" d="M957.6,464.1l2.62,2.95v.2l-2.46,3.09-.94-.54,2-2.62-2.17-2.52Z" transform="translate(-881 -461.04)"/><path class="cls-1" d="M973.89,461.53a4.63,4.63,0,0,1,2.88,1.34,2.93,2.93,0,0,1,.55,2.46,3.75,3.75,0,0,1-.68,1.57,2.89,2.89,0,0,1-1.54,1,5.52,5.52,0,0,1-2.59,0l-1.21-.21-.72,4.12-1.33-.23L971.09,461Zm-.32,1.12-1.35-.24-.72,4.18,1.06.19a4.26,4.26,0,0,0,2.34-.1,1.88,1.88,0,0,0,1-1.53,1.82,1.82,0,0,0-.4-1.64A3.41,3.41,0,0,0,973.57,462.65Z" transform="translate(-881 -461.04)"/><path class="cls-1" d="M990.1,471.74a6.91,6.91,0,0,1-1.51,2.55,4.32,4.32,0,0,1-2.22,1.25,5,5,0,0,1-2.79-.26,5.05,5.05,0,0,1-2.38-1.59,4.17,4.17,0,0,1-.9-2.38,8.09,8.09,0,0,1,2-5.46,4.27,4.27,0,0,1,2.2-1.26,5.22,5.22,0,0,1,2.86.29,5,5,0,0,1,2.32,1.56,4.29,4.29,0,0,1,.91,2.37A6.82,6.82,0,0,1,990.1,471.74Zm-8-2.86a5.24,5.24,0,0,0-.27,3.3,3.64,3.64,0,0,0,5,1.8,6.42,6.42,0,0,0,2.16-6,3.09,3.09,0,0,0-2.12-2,3.17,3.17,0,0,0-2.92.17A5.16,5.16,0,0,0,982.12,468.88Z" transform="translate(-881 -461.04)"/><path class="cls-1" d="M996.58,475l-.91-6.61,1.29.77.87,6.57,2.66-4.47,1.11.66-2.66,4.47,6.19-2.37,1.29.77-6.24,2.34.86,7-1.33-.8-.82-6.82-2.78,4.68-1.11-.67,2.78-4.67-6.4,2.52-1.33-.79Z" transform="translate(-881 -461.04)"/><path class="cls-1" d="M1007.68,489.84l-4.55-3.91,7-8.14,4.55,3.91-.77.9-3.52-3-2.19,2.54,3.32,2.85-.77.89-3.31-2.85-2.5,2.91,3.52,3Z" transform="translate(-881 -461.04)"/><path class="cls-1" d="M1018.47,485.48l2,2.33a6.22,6.22,0,0,1,1.53,2.69,2.19,2.19,0,0,1-.89,2.13,2.4,2.4,0,0,1-1.54.63,2.56,2.56,0,0,1-1.6-.63l-.05.05a4.47,4.47,0,0,1,.49,1.19,2.29,2.29,0,0,1,0,1.19,2.67,2.67,0,0,1-.82,1.12,2.74,2.74,0,0,1-2.37.71,4.27,4.27,0,0,1-2.38-1.55l-2.46-2.86Zm-3.44,4.74-2.95,2.54,1.41,1.64a2.77,2.77,0,0,0,1.72,1.14,1.92,1.92,0,0,0,1.46-.53,1.71,1.71,0,0,0,.66-1.32,3.19,3.19,0,0,0-1-1.91Zm.86-.74,1.29,1.51a3,3,0,0,0,1.57,1.14,1.61,1.61,0,0,0,1.33-.46,1.37,1.37,0,0,0,.56-1.3,3.92,3.92,0,0,0-1-1.76l-1.15-1.35Z" transform="translate(-881 -461.04)"/><path class="cls-1" d="M1020.46,506.22l-3.18-5.08,9.1-5.7,3.18,5.09-1,.63-2.47-3.94-2.84,1.78,2.32,3.71-1,.62-2.32-3.71-3.25,2,2.47,3.94Z" transform="translate(-881 -461.04)"/><path class="cls-1" d="M1032.45,521.71a7.07,7.07,0,0,1-2.94.36,4.36,4.36,0,0,1-2.35-1,5,5,0,0,1-1.49-2.37,5.12,5.12,0,0,1-.2-2.86,4.19,4.19,0,0,1,1.34-2.16,7.22,7.22,0,0,1,2.61-1.41,7.07,7.07,0,0,1,2.91-.37,4.22,4.22,0,0,1,2.34,1,5.25,5.25,0,0,1,1.52,2.44,5,5,0,0,1,.18,2.79,4.33,4.33,0,0,1-1.32,2.17A7,7,0,0,1,1032.45,521.71Zm-2.61-8.07a5.33,5.33,0,0,0-2.77,1.8,3.64,3.64,0,0,0,1.64,5.09,6.46,6.46,0,0,0,6.07-2,3.07,3.07,0,0,0,.28-2.88,3.14,3.14,0,0,0-1.93-2.21A5.18,5.18,0,0,0,1029.84,513.64Z" transform="translate(-881 -461.04)"/><path class="cls-1" d="M1037,532a2.25,2.25,0,0,1-1.82-.44,3.37,3.37,0,0,1-1.08-1.71h-.06a3.64,3.64,0,0,1-.54,2.16,2.26,2.26,0,0,1-1.6.95,2.81,2.81,0,0,1-2.43-.74,5.06,5.06,0,0,1-1.35-3.08,9.62,9.62,0,0,1-.11-1.67,4.68,4.68,0,0,1,.24-1.51l1.22-.18a6.14,6.14,0,0,0-.3,1.59,7.51,7.51,0,0,0,0,1.59,3.72,3.72,0,0,0,.85,2.09,1.76,1.76,0,0,0,1.62.51,1.57,1.57,0,0,0,1.35-1.08,5.25,5.25,0,0,0,.11-2.47l-.22-1.52,1.12-.16.21,1.44a4.25,4.25,0,0,0,.87,2.28,1.64,1.64,0,0,0,1.53.57,1.42,1.42,0,0,0,1.15-.77,2.62,2.62,0,0,0,.21-1.61,4.76,4.76,0,0,0-.5-1.63,7.16,7.16,0,0,0-.84-1.19l.81-.77a5.74,5.74,0,0,1,1,1.43,6.32,6.32,0,0,1,.62,2,4,4,0,0,1-.36,2.72A2.39,2.39,0,0,1,1037,532Z" transform="translate(-881 -461.04)"/><path class="cls-1" d="M1029.18,543l-.1-6,10.74-.18.09,6-1.18,0-.08-4.64-3.35.05.07,4.38-1.17,0-.08-4.38-3.83.06.08,4.65Z" transform="translate(-881 -461.04)"/><path class="cls-1" d="M1039.06,551.08a4.65,4.65,0,0,1-1.26,2.92,2.89,2.89,0,0,1-2.44.61,3.51,3.51,0,0,1-1.59-.63,3,3,0,0,1-1-1.5,5.84,5.84,0,0,1-.11-2.6l.18-1.22-4.13-.6.19-1.34,10.62,1.55Zm-1.12-.28.19-1.36-4.19-.61-.16,1.07a4.26,4.26,0,0,0,.16,2.34,1.87,1.87,0,0,0,1.56,1,1.83,1.83,0,0,0,1.63-.44A3.45,3.45,0,0,0,1037.94,550.8Z" transform="translate(-881 -461.04)"/><path class="cls-1" d="M1029.31,567.56a7.08,7.08,0,0,1-2.59-1.44,4.35,4.35,0,0,1-1.32-2.19,4.94,4.94,0,0,1,.19-2.79,5,5,0,0,1,1.52-2.42,4.19,4.19,0,0,1,2.35-1,7.27,7.27,0,0,1,2.94.4,7.11,7.11,0,0,1,2.57,1.41,4.18,4.18,0,0,1,1.33,2.16,5.17,5.17,0,0,1-.21,2.87,5,5,0,0,1-1.5,2.36,4.32,4.32,0,0,1-2.34,1A6.92,6.92,0,0,1,1029.31,567.56Zm2.64-8.06a5.33,5.33,0,0,0-3.31-.18,3.64,3.64,0,0,0-1.66,5.08,6.43,6.43,0,0,0,6.06,2,3.08,3.08,0,0,0,1.92-2.17,3.15,3.15,0,0,0-.26-2.92A5.22,5.22,0,0,0,1032,559.5Z" transform="translate(-881 -461.04)"/><path class="cls-1" d="M1026,577.75l-3.89.65-.17-.1-1.3-3.73,1-.52,1.14,3.12,3.28-.49Z" transform="translate(-881 -461.04)"/></svg>