<?xml version="1.0" encoding="utf-8"?>
<!-- Generator: Adobe Illustrator 22.1.0, SVG Export Plug-In . SVG Version: 6.00 Build 0)  -->
<svg version="1.1" id="Шар_1" xmlns="http://www.w3.org/2000/svg" xmlns:xlink="http://www.w3.org/1999/xlink" x="0px" y="0px"
	 viewBox="0 0 676 100.9" style="enable-background:new 0 0 676 100.9;" xml:space="preserve">
<style type="text/css">
	.st0{fill:#1D1D1B;}
</style>
<path class="st0" d="M43.3,45.7h30.3v39.7c-4.1,1.4-8.3,2.5-12.5,3.2c-4.9,0.8-9.8,1.2-14.7,1.2C35,89.8,26.2,86.4,20,79.7
	c-6.2-6.7-9.2-16.5-9.2-29.4c0-8,1.5-14.9,4.6-20.8c3-5.8,7.8-10.6,13.6-13.6c6-3.2,13.3-4.8,21.8-4.8c7.8,0,15.6,1.6,22.7,4.7
	l-5.4,13c-2.5-1.3-5.2-2.3-8-3c-3.1-0.8-6.2-1.2-9.4-1.2c-4.3-0.1-8.6,1-12.3,3.2c-3.5,2.2-6.3,5.4-8,9.1c-2,4.3-2.9,9-2.8,13.7
	c-0.1,4.5,0.6,9,2,13.3c1.2,3.6,3.4,6.7,6.4,9c2.9,2.2,6.8,3.3,11.5,3.3c1.9,0,3.9-0.1,5.8-0.3c1.6-0.2,3.1-0.5,4.5-0.8v-16H43.3
	V45.7z"/>
<path class="st0" d="M149.5,88.7l-5.6-18.2H116l-5.6,18.2H92.9l27-76.9h19.9l27.1,76.9H149.5z M140,56.8L134.4,39
	c-0.4-1.2-0.8-2.8-1.4-4.6c-0.6-1.9-1.1-3.8-1.7-5.7c-0.6-1.9-1-3.6-1.4-5c-0.4,1.4-0.8,3.2-1.5,5.3c-0.6,2.1-1.2,4.1-1.7,6
	s-0.9,3.2-1.2,4l-5.5,17.8L140,56.8z"/>
<path class="st0" d="M209.6,12.1c10.4,0,18.1,1.9,23.1,5.7s7.5,9.5,7.5,17.3c0.1,3.2-0.6,6.3-2,9.2c-1.3,2.6-3.1,4.8-5.3,6.6
	c-2.1,1.8-4.5,3.3-7,4.5l22.5,33.3h-18l-18.2-29.4h-8.7v29.4h-16.2V12.1H209.6z M208.4,25.4h-4.9v20.7h5.3c5.3,0,9.2-0.9,11.5-2.7
	c2.3-1.8,3.5-4.4,3.5-7.9s-1.3-6.2-3.8-7.8S213.7,25.4,208.4,25.4L208.4,25.4z"/>
<path class="st0" d="M297.5,88.7h-34.9v-9.2l9.3-4.3V25.6l-9.3-4.3v-9.2h34.9v9.2l-9.3,4.3v49.5l9.3,4.3V88.7z"/>
<path class="st0" d="M437.4,88.7h-16.2v-63h-20.8V12.1h57.8v13.5h-20.8V88.7z"/>
<path class="st0" d="M503.1,12.1c10.4,0,18.1,1.9,23.1,5.7c5,3.8,7.5,9.5,7.5,17.3c0.1,3.2-0.6,6.3-2,9.2c-1.3,2.6-3.1,4.8-5.3,6.6
	c-2.1,1.8-4.5,3.3-7,4.5l22.5,33.3h-18l-18.2-29.4H497v29.4h-16.2V12.1H503.1z M501.9,25.4H497v20.7h5.3c5.3,0,9.2-0.9,11.5-2.7
	c2.3-1.8,3.5-4.4,3.5-7.9s-1.3-6.2-3.8-7.8S507.1,25.4,501.9,25.4L501.9,25.4z"/>
<path class="st0" d="M590.9,88.7H556v-9.2l9.3-4.3V25.6l-9.3-4.3v-9.2h34.8v9.2l-9.3,4.3v49.5l9.3,4.3L590.9,88.7z"/>
<path class="st0" d="M639.2,12.1c9.9,0,17.1,2.1,21.6,6.4c4.5,4.3,6.8,10.1,6.8,17.5c0,4.3-0.9,8.6-2.8,12.5c-2,4-5.3,7.3-9.3,9.3
	c-4.3,2.4-10.2,3.5-17.6,3.5h-7v27.2h-16.2V12.1H639.2z M638.3,25.4h-7.4v22.7h5.4c4.6,0,8.2-0.9,10.9-2.7c2.7-1.8,4-4.8,4-8.8
	C651.2,29.1,646.9,25.4,638.3,25.4L638.3,25.4z"/>
</svg>
