<svg id="Шар_1" data-name="Шар 1" xmlns="http://www.w3.org/2000/svg" viewBox="0 0 932.46 271.05"><defs><style>.cls-1{fill:#b11622;}</style></defs><rect class="cls-1" x="16.05" y="587.16" width="7.58" height="1.26" transform="translate(-255.44 -259.03) rotate(-24.21)"/><path class="cls-1" d="M37.45,580.56l-.51-1.15,13.9-6.25.52,1.15Zm27.81-12.51-.52-1.15,13.91-6.25.52,1.15Zm27.81-12.5-.52-1.15,13.9-6.26.52,1.15ZM120.88,543l-.52-1.15,13.9-6.25.52,1.15Zm27.8-12.51-.52-1.15,13.91-6.25.52,1.15ZM176.49,518l-.52-1.15,13.91-6.26.51,1.16Zm27.81-12.51-.52-1.15,13.9-6.25.52,1.15ZM232.1,493l-.51-1.16,13.9-6.25.52,1.15Zm27.81-12.51-.52-1.15,13.91-6.26.51,1.16ZM287.72,468l-.52-1.15,13.9-6.25.52,1.15Zm27.8-12.5-.51-1.16,13.9-6.25.52,1.15ZM343.33,443l-.52-1.15,13.91-6.26.51,1.16Zm27.81-12.51-.52-1.15,13.9-6.25.52,1.15Zm27.8-12.5-.51-1.15,13.9-6.26.52,1.15Zm527.5-1.74-14.54-4.58.38-1.21L926.82,415Zm-29.08-9.16-14.55-4.58.38-1.2,14.55,4.57Zm-470.61-1.61-.52-1.15,13.91-6.25.52,1.15Zm441.52-7.55-14.54-4.58.38-1.2,14.54,4.58Zm-413.71-5-.52-1.15,13.9-6.25.52,1.15Zm384.63-4.2-14.54-4.58L825,383l14.54,4.58Zm-356.82-8.3-.52-1.15,13.9-6.26.52,1.15Zm327.74-.85L795.57,375l.38-1.21,14.54,4.58ZM781,370.45l-14.54-4.58.38-1.21,14.54,4.58ZM510.17,368l-.52-1.15,13.91-6.25.52,1.15ZM752,361.29l-14.55-4.58.38-1.2,14.55,4.57Zm-214-5.84-.52-1.16L551.37,348l.51,1.15Zm184.88-3.32-14.54-4.58.38-1.2,14.54,4.58ZM693.78,343l-14.54-4.58.38-1.2,14.54,4.58Zm-128,0-.52-1.15,13.9-6.26.52,1.16Zm98.91-9.12-14.54-4.58.38-1.21,14.54,4.58Zm-71.11-3.39-.51-1.15L607,323l.52,1.15Zm42-5.77-14.54-4.58.38-1.21L636,323.45Z" transform="translate(-16.12 -318.87)"/><rect class="cls-1" x="944.15" y="417.56" width="1.26" height="7.58" transform="translate(242.96 877.06) rotate(-72.52)"/></svg>