<?xml version="1.0" encoding="utf-8"?>
<!-- Generator: Adobe Illustrator 22.1.0, SVG Export Plug-In . SVG Version: 6.00 Build 0)  -->
<svg version="1.1" id="Шар_1" xmlns="http://www.w3.org/2000/svg" xmlns:xlink="http://www.w3.org/1999/xlink" x="0px" y="0px"
	 viewBox="0 0 33.8 48.4" style="enable-background:new 0 0 33.8 48.4;" xml:space="preserve">
<style type="text/css">
	.st0{fill:#1D1D1B;}
</style>
<path class="st0" d="M0,0v48.4h33.8V0H0z M31.8,46.4H2V2h29.8V46.4z"/>
<path class="st0" d="M28.9,37.1l-12-15.2l-12,15.3l12,7L28.9,37.1z M17.9,26.3l8,10.2l-8,4.7V26.3z M15.9,41.1l-8-4.7l8-10.2V41.1z"
	/>
<path class="st0" d="M16.9,18.4c2.9,0,5.3-2.4,5.3-5.3s-2.4-5.3-5.3-5.3s-5.3,2.4-5.3,5.3l0,0C11.5,16,13.9,18.4,16.9,18.4z
	 M16.9,9.7c1.8,0,3.3,1.5,3.3,3.3s-1.5,3.3-3.3,3.3s-3.3-1.5-3.3-3.3C13.5,11.2,15,9.7,16.9,9.7C16.9,9.7,16.9,9.7,16.9,9.7z"/>
</svg>
