<?xml version="1.0" encoding="utf-8"?>
<!-- Generator: Adobe Illustrator 22.1.0, SVG Export Plug-In . SVG Version: 6.00 Build 0)  -->
<svg version="1.1" id="Шар_1" xmlns="http://www.w3.org/2000/svg" xmlns:xlink="http://www.w3.org/1999/xlink" x="0px" y="0px"
	 viewBox="0 0 566.9 566.9" style="enable-background:new 0 0 566.9 566.9;" xml:space="preserve">
<style type="text/css">
	.st0{fill:#FFFFFF;}
</style>
<path id="wave1" class="st0" d="M0,518l0,49.2h566.9l0-49.2c-13.9-2.7-44.5-4.7-63,1.1c-17.3,5.5-37.7,22.6-68,23.8c-24.8,1-56.6-49.4-84.3-49.4c-30.3,0-58.5,35.7-78.4,38.2c-32.2,4.1-69.9-27.7-98.3-27.1c-29.4,0.6-74.8,33.5-99.7,32.8C50.1,536.6,26.7,515.9,0,518z"/>
<path id="wave2" class="st0" d="M0,514.3l0,52.9h566.9l0-59.7c-10.4,2.1-21.5,4.9-30.1,4.3c-18.6-1.4-38.4-12-61.5-11.9c-24.8,0-56.8,29-79.5,31.1c-28.1,2.6-62.1-23.5-85.2-24.4c-35.4-1.4-70.5,24.7-98.9,25.3c-29.4,0.6-70.5-24.4-95.4-25.9C91.2,504.4,26.7,512.2,0,514.3z"/>
</svg>
